# xmcd
#
# Track frame offsets:
#	150
#	12479
#	24619
#	36012
#	47492
#	60374
#	70745
#	82948
#	92724
#	104751
#	118338
#	131998
#	145141
#	158860
#	172913
#	185978
#	198238
#	213036
#
# Disc length: 3031 seconds
#
# Revision: 1
# Processed by: cddbd v1.5.2PL0 Copyright (c) Steve Scherf et al.
# Submitted via: audiograbber 1.83.01
#
DISCID=fb0bd512
DTITLE=Loretta Lynn - 50th  Anniversary  Collection(disc2)
DYEAR=2010
DGENRE=Country
TTITLE0=Here I Am Again
TTITLE1=Rated X
TTITLE2=Love Is The Foundation
TTITLE3=Louisiana Woman Mississippi Men
TTITLE4=Hey Loretta
TTITLE5=They Don't Make Them Like My Daddy Anymore
TTITLE6=As Soon As I Hang Up The Phone
TTITLE7=Trouble In Paradise
TTITLE8=The Pill
TTITLE9=Feelings
TTITLE10=When The Tingle Becomes A Chill
TTITLE11=The Letter
TTITLE12=Somebody Somewhere
TTITLE13=She's Got You
TTITLE14=I Can't Love You Enough
TTITLE15=Out Of My Head and Back In My Bed
TTITLE16=I Can't Feel You Anymore
TTITLE17=I Still Believe In Waltzes
EXTD=
EXTT0=
EXTT1=
EXTT2=
EXTT3=
EXTT4=
EXTT5=
EXTT6=
EXTT7=
EXTT8=
EXTT9=
EXTT10=
EXTT11=
EXTT12=
EXTT13=
EXTT14=
EXTT15=
EXTT16=
EXTT17=
PLAYORDER=
